<svg xmlns="http://www.w3.org/2000/svg" viewBox="-3 -3 225 101" fill="#182a21"><title>Veyl</title><path d="M0 16H14L29 55L43 16H57L35 73H23Z"/><path fill-rule="evenodd" d="M117 48H75C77 59 84 65 94 65C102 65 108 62 114 57V69C107 74 101 76 92 76C73 76 61 64 61 45C61 27 73 14 90 14C108 14 118 27 117 48ZM76 38H104C102 28 98 24 90 24C82 24 78 29 76 38Z"/><path d="M125 16H140L155 54L169 16H183L159 78C155 90 147 95 135 95H129V83H135C142 83 146 80 149 73Z"/><path d="M194 16H207V54C207 61 210 64 216 64H219V76H213C200 76 194 69 194 56Z"/></svg>
